<?xml version="1.0" encoding="iso-8859-1"?>
<!-- Generator: Adobe Illustrator 19.0.0, SVG Export Plug-In . SVG Version: 6.00 Build 0)  -->
<svg version="1.1" id="Capa_1" xmlns="http://www.w3.org/2000/svg" xmlns:xlink="http://www.w3.org/1999/xlink" x="0px" y="0px"
	 viewBox="0 0 512.002 512.002" style="enable-background:new 0 0 512.002 512.002;" xml:space="preserve">
<path style="fill:#BDEBFF;" d="M364.115,214.93c-11.358,11.139-29.594,10.96-40.733-0.398
	c-75.896-77.394-135.213-72.227-187.547-67.667c-37.817,3.294-80.679,7.028-110.223-32.512c-31.348-41.956-13.72-81.11-7.57-92.111
	C25.81,8.353,43.354,3.393,57.24,11.155s18.849,25.311,11.088,39.197c-3.636,6.504-5.991,16.906,3.435,29.522
	c9.543,12.774,22.249,12.811,59.073,9.603c55.249-4.813,137.733-11.086,233.678,84.723
	C384.696,194.351,365.328,213.741,364.115,214.93z"/>
<path style="fill:#92D8FF;" d="M328.968,183.974c-71.303-72.71-127.03-67.855-176.196-63.572
	c-35.528,3.095-75.797,6.602-103.552-30.544C23.028,54.805,33.236,21.819,39.878,7.681c-8.867,1.037-17.142,6.171-21.834,14.562
	c-6.149,11.002-23.778,50.155,7.57,92.111c29.543,39.54,72.406,35.806,110.223,32.512c52.334-4.559,111.652-9.727,187.547,67.667
	c11.139,11.358,29.375,11.537,40.733,0.398c1.072-1.051,16.326-16.348,5.899-33.804
	C359.654,197.934,339.431,194.645,328.968,183.974z"/>
<path style="fill:#BDEBFF;" d="M297.071,147.885c-11.139,11.358-10.96,29.594,0.398,40.733
	c77.394,75.896,72.227,135.213,67.667,187.547c-3.294,37.817-7.028,80.679,32.512,110.223c41.956,31.348,81.11,13.72,92.111,7.57
	c13.89-7.767,18.849-25.311,11.088-39.197c-7.762-13.886-25.311-18.849-39.197-11.088c-6.504,3.636-16.906,5.991-29.522-3.435
	c-12.774-9.543-12.811-22.249-9.603-59.073c4.813-55.249,11.086-137.733-84.723-233.678
	C317.65,127.306,298.26,146.673,297.071,147.885z"/>
<path style="fill:#92D8FF;" d="M328.027,183.033c72.71,71.303,67.855,127.03,63.572,176.196
	c-3.095,35.528-6.602,75.797,30.544,103.552c35.053,26.191,68.04,15.978,82.179,9.336c-1.037,8.867-6.172,17.148-14.563,21.84
	c-11.002,6.149-50.155,23.778-92.111-7.57c-39.54-29.543-35.806-72.406-32.512-110.223c4.559-52.334,9.727-111.652-67.667-187.547
	c-11.358-11.139-11.537-29.375-0.398-40.733c1.051-1.072,16.332-16.315,33.788-5.889
	C316.446,153.394,317.356,172.57,328.027,183.033z"/>
<path style="fill:#D7F3FF;" d="M374.285,225.819L374.285,225.819c-16.134,16.133-42.533,16.133-58.665,0l-29.679-29.679
	c-16.132-16.132-16.132-42.533,0-58.665l0,0c16.133-16.132,42.533-16.132,58.665,0l29.679,29.679
	C390.418,183.286,390.418,209.686,374.285,225.819z"/>
<path style="fill:#A0F0F2;" d="M88.668,334.748l-35.729,35.729c-9.515,9.515-4.947,25.775,8.131,28.943l41.273,9.997l9.997,41.273
	c3.168,13.078,19.428,17.645,28.943,8.131l35.729-35.729c6.847-6.847,10.044-16.532,8.617-26.109l-9.185-61.667l-61.667-9.185
	C105.201,324.705,95.515,327.901,88.668,334.748z"/>
<path style="fill:#7DE2E2;" d="M88.668,334.748l-35.729,35.729c-9.515,9.515-4.947,25.775,8.131,28.943l41.273,9.997l74.102-74.102
	l-61.667-9.185C105.201,324.705,95.515,327.901,88.668,334.748z"/>
<path style="fill:#FFDE55;" d="M123.393,388.367c-5.858-5.858-5.858-15.355,0-21.212L412.1,78.448
	c5.857-5.858,15.355-5.858,21.212,0s5.858,15.355,0,21.212L144.605,388.367C135.792,396.522,126.322,391.296,123.393,388.367z"/>
<path style="fill:#FF737D;" d="M435.746,136.416c-14.192,0.646-26.227-9.116-29.635-22.234c-1.085-4.176-4.357-7.448-8.533-8.533
	c-13.119-3.408-22.88-15.444-22.234-29.635c1.946-42.747,55.679-36.346,78.903-31.557c6.566,1.354,11.703,6.492,13.057,13.057
	C472.092,80.738,478.493,134.47,435.746,136.416z"/>
<path style="fill:#F46262;" d="M459.541,112.626c-15.334,0.698-28.15-10.754-30.287-25.463c-0.35-2.413-2.24-4.302-4.653-4.653
	c-14.71-2.137-26.161-14.953-25.463-30.287c0.135-2.964,0.53-5.692,1.135-8.2c-13.556,4.209-24.086,13.508-24.928,31.993
	c-0.646,14.192,9.116,26.227,22.234,29.635c4.176,1.085,7.449,4.357,8.533,8.533c3.408,13.119,15.444,22.88,29.635,22.234
	c18.485-0.842,27.779-11.372,31.988-24.927C465.227,112.097,462.505,112.491,459.541,112.626z"/>
<path d="M507.393,451.101c-9.769-17.473-31.931-23.74-49.402-13.975c-6.735,3.765-13.727,2.818-21.374-2.897
	c-8.932-6.673-9.922-14.511-6.62-52.414c3.645-41.832,9.123-104.802-36.695-177.667c2.277-14.49-1.949-29.802-12.672-41.201
	l28.931-28.931c6.665,6.212,32.183,23.512,57.645-5.105c7.185-8.075,16.425-29.351,7.441-72.913
	c-1.961-9.513-9.375-16.926-18.887-18.887c-43.56-8.984-64.379,0.806-72.913,7.441c-9.342,7.265-14.387,17.734-14.997,31.12
	c-0.455,9.999,3.325,19.476,9.893,26.524l-28.933,28.933c-11.43-10.752-26.792-14.97-41.316-12.653
	c-19.007-11.911-38.69-21.156-58.549-27.483c-3.948-1.256-8.166,0.922-9.423,4.869c-1.257,3.947,0.922,8.166,4.869,9.423
	c15.193,4.841,30.302,11.52,45.076,19.898c-3.139,1.946-6.111,4.266-8.833,6.988c-7.929,7.929-12.554,17.922-13.9,28.265
	c-50.39-28.107-93.348-24.371-131.554-21.043c-37.619,3.276-76.519,6.666-103.563-29.529c-28.64-38.336-12.62-73.958-7.029-83.96
	C30.324,15.65,43.33,11.972,53.58,17.7c10.254,5.732,13.933,18.737,8.201,28.991c-3.864,6.912-8.486,20.996,3.973,37.67
	c12.326,16.498,29.06,15.781,65.732,12.585c20.982-1.829,49.72-4.333,81.304,0.79c4.085,0.662,7.941-2.114,8.604-6.203
	c0.663-4.089-2.114-7.941-6.203-8.604c-33.426-5.42-63.239-2.823-85.007-0.927c-37.904,3.302-45.742,2.313-52.414-6.62
	c-5.714-7.648-6.662-14.639-2.897-21.373c9.768-17.472,3.499-39.635-13.975-49.402c-17.468-9.765-39.63-3.496-49.4,13.977
	C4.791,30.581-14.445,73.27,19.605,118.842c16.145,21.608,36.1,31.285,56.76,35.151c34.856,47.706,73.024,93.079,114.032,135.551
	l-72.308,72.308c-6.911,6.911-8.353,17.227-4.375,25.587l-13.699,13.699l-37.181-9.006c-3.47-0.84-6.118-3.394-7.083-6.831
	c-0.965-3.437-0.035-6.996,2.49-9.521l35.728-35.728c5.144-5.143,12.511-7.573,19.701-6.503l10.388,1.547
	c4.095,0.613,7.913-2.216,8.523-6.313c0.61-4.097-2.216-7.913-6.313-8.523l-10.388-1.547c-11.878-1.77-24.029,2.244-32.518,10.732
	l-35.728,35.729c-6.413,6.413-8.777,15.454-6.324,24.183c2.453,8.731,9.179,15.218,17.992,17.351l36.827,8.92l8.92,36.827
	c2.134,8.813,8.621,15.54,17.351,17.992c2.27,0.638,12.95,3.231,24.183-6.324l35.729-35.729c8.488-8.488,12.5-20.644,10.732-32.517
	l-5.879-39.468l35.05-35.05c42.532,41.044,88.001,79.195,135.758,114.104c3.844,20.721,13.514,40.742,35.182,56.932
	c19.96,14.914,39.364,19.604,55.881,19.604c21.195,0,37.636-7.728,44.38-11.498C510.891,490.734,517.16,468.572,507.393,451.101z
	 M368.982,220.516c-12.892,12.892-33.647,13.236-46.963,1.042l48.005-48.005C382.217,186.871,381.873,207.625,368.982,220.516z
	 M382.836,76.355c0.406-8.923,3.422-15.453,9.221-19.961c7.758-6.033,19.494-7.879,30.953-7.879c11.716,0,23.142,1.93,29.722,3.287
	c3.64,0.751,6.476,3.587,7.227,7.227c2.684,13.017,7.61,44.984-4.592,60.675c-4.509,5.798-11.039,8.814-19.961,9.221l0,0
	c-10.138,0.477-19.412-6.531-22.034-16.627c-1.769-6.809-7.098-12.138-13.907-13.907C389.367,95.767,382.374,86.5,382.836,76.355z
	 M291.244,142.778c12.891-12.892,33.646-13.236,46.963-1.042l-48.005,48.006C278.008,176.424,278.353,155.669,291.244,142.778z
	 M96.588,156.128c13.728,0.486,27.325-0.696,39.901-1.792c39.936-3.478,81.219-7.05,131.216,24.1
	c1.936,7.977,5.908,15.55,11.891,21.909l-78.592,78.592C163.697,240.287,128.771,199.203,96.588,156.128z M178.211,398.088
	c1.071,7.193-1.359,14.559-6.502,19.701l-35.729,35.729c-2.524,2.524-6.086,3.454-9.521,2.49c-3.437-0.966-5.991-3.614-6.831-7.083
	l-9.006-37.181l13.764-13.764c13.406,8.371,25.453-4.241,25.521-4.309l24.061-24.061L178.211,398.088z M232.821,310.757
	l17.146-17.146c2.929-2.929,2.929-7.678,0-10.606c-2.929-2.929-7.678-2.929-10.606,0l-99.944,99.943
	c-5.62,5.091-10.67,0.166-10.721,0.115c-2.924-2.924-2.924-7.682,0-10.606l261.467-261.467c1.771,0.772,3.614,1.42,5.529,1.918
	c1.547,0.402,2.758,1.612,3.16,3.16c0.497,1.915,1.145,3.76,1.917,5.53L261.995,260.372c-2.929,2.929-2.929,7.678,0,10.606
	c1.464,1.464,6.458,3.988,10.606,0l38.813-38.813c6.388,6.009,14.001,9.987,22.015,11.914
	c31.296,50.089,27.72,91.435,24.236,131.436c-1.094,12.556-2.274,26.13-1.794,39.837
	C312.709,383.119,271.545,348.132,232.821,310.757z M486.1,487.411c-10.006,5.593-45.629,21.612-83.963-7.031
	c-36.195-27.044-32.807-65.944-29.529-103.564c3.335-38.282,7.077-81.308-21.185-131.805c10.308-1.362,20.263-5.985,28.166-13.888
	c2.752-2.752,5.093-5.758,7.052-8.935c36.615,64.155,31.91,118.206,28.415,158.326c-3.195,36.674-3.912,53.407,12.585,65.732
	c16.673,12.458,30.759,7.837,37.671,3.973c10.254-5.731,23.258-2.053,28.991,8.201C500.031,468.672,496.352,481.678,486.1,487.411z"
	/>
<g>
</g>
<g>
</g>
<g>
</g>
<g>
</g>
<g>
</g>
<g>
</g>
<g>
</g>
<g>
</g>
<g>
</g>
<g>
</g>
<g>
</g>
<g>
</g>
<g>
</g>
<g>
</g>
<g>
</g>
</svg>
